<?xml version="1.0" encoding="utf-8"?>
<svg version="1.1" id="Layer_1" x="0px" y="0px" width="200" height="200" viewBox="0 0 625 625" enable-background="new 0 0 625 625" xmlns="http://www.w3.org/2000/svg">
  <path fill="#272727" opacity="1.000000" stroke="none" d=" M323.000000,626.000000 C318.308624,626.000000 313.617249,626.000000 308.661407,625.639771 C307.127899,624.613159 305.929291,623.694641 304.579437,623.317505 C271.533020,614.083557 238.459183,604.947693 205.414871,595.706177 C183.870758,589.680969 162.371429,583.495911 140.840820,577.422180 C122.310669,572.194885 103.764633,567.023926 84.971054,561.756653 C84.299133,551.924316 83.688721,542.388855 82.984085,532.860352 C82.352119,524.314514 81.656273,515.772949 80.917740,507.235565 C79.640968,492.476227 78.252769,477.726349 77.020981,462.963348 C76.225319,453.427307 75.704849,443.868408 74.918892,434.331482 C73.675293,419.241333 72.260818,404.165222 71.018921,389.074921 C70.234009,379.537506 69.709663,369.978607 68.929184,360.440765 C67.680351,345.179565 66.294930,329.929565 65.011986,314.671082 C64.583427,309.574066 64.370972,304.458588 63.922619,299.363586 C62.653278,284.938934 61.233959,270.527161 60.028019,256.097412 C59.203793,246.235016 58.778198,236.338913 57.926403,226.479309 C56.382862,208.612610 54.613415,190.765549 53.017181,172.903229 C51.946796,160.925354 50.997593,148.936523 50.020859,136.950424 C48.669151,120.362785 47.357864,103.771843 46.000011,87.184715 C45.032612,75.367233 43.986984,63.556133 43.030117,51.737827 C41.660969,34.827305 40.340981,17.912802 39.000000,1.000000 C221.690750,1.000000 404.381500,1.000000 587.341919,1.400687 C587.708801,2.780845 587.965759,3.774672 587.879272,4.737624 C586.612854,18.826445 585.252441,32.906910 584.017090,46.998371 C583.239868,55.864170 582.706787,64.751320 581.934570,73.617607 C580.678528,88.040230 579.280823,102.450478 578.012024,116.872032 C577.246643,125.571465 576.696716,134.290192 575.899231,142.986404 C574.667297,156.420273 573.221497,169.834778 572.029114,183.271927 C571.198486,192.631729 570.724487,202.022720 569.941162,211.387238 C568.692932,226.309494 567.297607,241.219391 566.008118,256.138275 C565.270203,264.675598 564.677673,273.225647 563.914429,281.760559 C562.654236,295.852875 561.263855,309.933655 560.015625,324.026978 C559.229919,332.897766 558.686951,341.790161 557.885986,350.659393 C556.657959,364.256104 555.222473,377.834320 554.026794,391.433716 C553.203857,400.793793 552.729919,410.184204 551.935120,419.547089 C550.696472,434.137726 549.290161,448.714050 548.009094,463.301208 C547.259155,471.840485 546.692017,480.396149 545.904175,488.931671 C544.664185,502.365356 543.221924,515.780640 542.029358,529.218323 C541.198730,538.577881 540.716003,547.968079 539.923706,557.331604 C539.657837,560.472839 538.083252,562.310974 534.603577,563.266296 C521.382812,566.895935 508.317291,571.085693 495.142700,574.889282 C461.423126,584.624207 427.678314,594.271545 393.939514,603.939697 C371.636566,610.330811 349.317261,616.665527 327.040039,623.144958 C325.543213,623.580383 324.339844,625.024841 323.000000,626.000000 M315.956055,508.630249 C315.966095,527.290222 315.964203,545.950195 315.992645,564.610168 C316.002655,571.174866 316.475281,571.501953 322.948608,569.766235 C323.752716,569.550598 324.542480,569.281982 325.342346,569.049744 C345.013275,563.338623 364.684235,557.627563 384.356049,551.919434 C421.621094,541.106384 458.877777,530.264160 496.168182,519.539185 C499.309357,518.635742 500.872681,517.310852 501.127106,513.822388 C502.033447,501.396851 503.266266,488.995148 504.373077,476.584167 C505.583099,463.015869 506.818390,449.449799 507.990906,435.878265 C509.149292,422.470215 510.213501,409.054016 511.373291,395.646088 C512.547241,382.074615 513.807800,368.510651 514.993408,354.940186 C516.135803,341.863922 517.213318,328.782043 518.351868,315.705475 C519.547913,301.969513 520.806702,288.238983 521.993530,274.502258 C523.137695,261.259308 524.183411,248.007797 525.348938,234.766815 C526.514160,221.528183 527.838928,208.303482 528.974731,195.062469 C530.139099,181.487915 531.069946,167.893112 532.264954,154.321457 C533.751099,137.441910 535.438721,120.580223 536.973083,103.704796 C538.266724,89.477715 539.336914,75.228897 540.784485,61.018074 C541.223694,56.706425 540.170227,54.961155 535.585999,54.945526 C464.467957,54.703091 393.350098,54.381401 322.233032,53.939152 C317.464386,53.909496 315.852600,55.421326 315.898651,60.233089 C316.089966,80.223885 315.950165,100.217834 315.038483,120.473991 C256.274170,120.473991 197.509827,120.473991 138.189484,120.473991 C141.357224,143.315155 144.431900,165.485336 147.579163,188.178925 C201.878036,188.178925 255.818497,188.178925 309.758972,188.178925 C307.956665,189.918991 306.053619,190.858383 304.106110,191.694183 C254.151199,213.132843 204.200867,234.582245 154.208801,255.933929 C151.383560,257.140594 150.146820,258.230927 150.731461,261.688232 C152.534241,272.348694 153.812195,283.097137 155.348343,293.803619 C156.736435,303.478210 158.196030,313.142517 159.657227,323.035706 C161.922714,323.035706 163.741684,323.035675 165.560654,323.035675 C201.040955,323.035675 236.521271,323.018280 272.001556,323.044067 C286.655945,323.054718 301.310303,323.158051 315.969971,324.128906 C315.966888,358.975159 315.963837,393.821381 315.172058,428.937836 C310.944122,428.805328 306.547180,429.380615 302.517426,428.418274 C284.736115,424.171936 267.077057,419.416595 249.341385,414.974762 C235.157532,411.422455 235.281738,411.491547 233.921280,396.927460 C232.765579,384.555634 231.224365,372.219788 229.861557,359.938416 C207.266800,359.938416 185.216171,359.938416 162.992752,359.938416 C162.992752,361.611206 162.899490,362.926331 163.006409,364.224945 C165.738235,397.409149 168.517487,430.589508 171.192123,463.778290 C171.417404,466.573761 172.561127,467.701935 175.243759,468.423248 C190.491150,472.523163 205.685486,476.821259 220.888016,481.087067 C252.573517,489.978058 284.252838,498.891083 315.956055,508.630249 z"/>

  <path fill="#FFFFFF" opacity="0" stroke="none" d=" M315.964661,323.219208 C301.310303,323.158051 286.655945,323.054718 272.001556,323.044067 C236.521271,323.018280 201.040955,323.035675 165.560654,323.035675 C163.741684,323.035675 161.922714,323.035706 159.657227,323.035706 C158.196030,313.142517 156.736435,303.478210 155.348343,293.803619 C153.812195,283.097137 152.534241,272.348694 150.731461,261.688232 C150.146820,258.230927 151.383560,257.140594 154.208801,255.933929 C204.200867,234.582245 254.151199,213.132843 304.106110,191.694183 C306.053619,190.858383 307.956665,189.918991 309.758972,188.178925 C255.818497,188.178925 201.878036,188.178925 147.579163,188.178925 C144.431900,165.485336 141.357224,143.315155 138.189484,120.473991 C197.509827,120.473991 256.274170,120.473991 315.941895,120.474854 C372.768372,120.475723 428.691437,120.475723 484.821350,120.475723 C484.821350,143.038925 484.821350,164.822906 484.821350,186.767349 C432.535339,208.482880 380.307098,230.174408 328.078857,251.865936 C328.198090,252.297409 328.317291,252.728897 328.436523,253.160370 C376.191925,253.160370 423.947357,253.160370 471.836090,253.160370 C470.782623,266.227631 469.797028,278.843750 468.743439,291.454132 C464.124908,346.733246 459.434387,402.006500 454.952057,457.296631 C454.581818,461.863281 453.450684,464.660126 448.565552,465.570465 C444.834167,466.265778 441.259125,467.800537 437.614990,468.963470 C397.054840,481.907135 356.494812,494.851135 315.934723,507.795044 C284.252838,498.891083 252.573517,489.978058 220.888016,481.087067 C205.685486,476.821259 190.491150,472.523163 175.243759,468.423248 C172.561127,467.701935 171.417404,466.573761 171.192123,463.778290 C168.517487,430.589508 165.738235,397.409149 163.006409,364.224945 C162.899490,362.926331 162.992752,361.611206 162.992752,359.938416 C185.216171,359.938416 207.266800,359.938416 229.861557,359.938416 C231.224365,372.219788 232.765579,384.555634 233.921280,396.927460 C235.281738,411.491547 235.157532,411.422455 249.341385,414.974762 C267.077057,419.416595 284.736115,424.171936 302.517426,428.418274 C306.547180,429.380615 310.944122,428.805328 315.960449,428.801422 C339.580139,424.185364 362.395844,419.622559 385.259735,415.315765 C388.682129,414.671082 389.821594,413.454376 390.120392,409.946564 C391.800171,390.225128 393.810852,370.532043 395.675293,350.826111 C396.533051,341.760010 397.314819,332.686676 398.166840,323.219208 C370.450226,323.219208 343.207458,323.219208 315.964661,323.219208 z"/>
  <path fill="#181818" opacity="1.000000" stroke="none" d="M 310.701 508.213 C 353.142 494.851 395.594 481.907 438.046 468.963 C 441.86 467.801 445.601 466.266 449.507 465.57 C 454.62 464.66 455.803 461.863 456.191 457.297 C 460.882 402.007 465.792 346.733 470.625 291.454 C 471.728 278.844 472.76 266.228 473.863 253.16 C 423.741 253.16 373.757 253.16 323.774 253.16 C 323.65 252.729 323.525 252.297 323.4 251.866 C 378.065 230.174 432.729 208.483 487.453 186.767 C 487.453 164.823 487.453 143.039 487.453 120.476 C 428.705 120.476 370.174 120.476 311.164 120.343 C 310.706 100.218 310.852 80.224 310.652 60.233 C 310.604 55.421 315.397 52.771 320.388 52.774 C 422.777 52.828 467.316 51.209 541.751 53.393 C 546.547 53.534 546.487 56.706 546.026 61.018 C 544.512 75.229 543.392 89.478 542.038 103.705 C 540.432 120.58 538.665 137.442 537.11 154.321 C 535.859 167.893 534.885 181.488 533.666 195.062 C 532.478 208.303 531.091 221.528 529.872 234.767 C 528.651 248.008 527.557 261.259 526.359 274.502 C 525.118 288.239 523.8 301.97 522.548 315.705 C 521.357 328.782 520.229 341.864 519.033 354.94 C 517.792 368.511 516.473 382.075 515.244 395.646 C 514.03 409.054 512.916 422.47 511.704 435.878 C 510.476 449.45 509.184 463.016 507.917 476.584 C 506.759 488.995 505.469 501.397 504.52 513.822 C 504.254 517.311 500.882 520.25 497.622 521.247 C 438.38 539.374 427.284 541.96 388.28 552.773 C 367.691 558.482 343.972 565.616 323.383 571.327 C 322.546 571.559 318.872 572.113 318.03 572.328 C 311.255 574.064 310.76 571.175 310.75 564.61 C 310.721 545.95 310.723 527.29 310.701 508.213 Z" style=""/>
  <path fill="#181818" opacity="1.000000" stroke="none" d="M 311.77 323.674 C 340.401 323.219 369.035 323.219 398.167 323.219 C 397.271 332.687 396.45 341.76 395.548 350.826 C 393.588 370.532 391.475 390.225 389.71 409.947 C 389.395 413.454 388.198 414.671 384.601 415.316 C 360.569 419.623 338.256 424.431 313.844 428.912 C 313.433 394.067 311.77 358.975 311.77 323.674 Z" style=""/>
</svg>