<?xml version="1.0" encoding="utf-8"?>
<svg version="1.1" id="Layer_1" x="0px" y="0px" width="200" height="200"  viewBox="0 0 2048 2048" enable-background="new 0 0 2048 2048" xmlns="http://www.w3.org/2000/svg">
  <path fill="#272727" opacity="1.000000" stroke="none" d=" M1029.000000,2049.000000 C1024.302368,2049.000000 1019.604797,2049.000000 1014.707458,2048.652100 C1013.843689,2047.878540 1013.234131,2047.259033 1012.507812,2047.054932 C982.586426,2038.649658 952.639099,2030.336548 922.729858,2021.888550 C904.409119,2016.713623 886.170044,2011.249512 867.848938,2006.075806 C842.642822,1998.958130 817.376221,1992.054321 792.168579,1984.941895 C771.336670,1979.064087 750.568237,1972.961182 729.743408,1967.058105 C702.667297,1959.382935 675.556702,1951.829468 648.473022,1944.180786 C627.169861,1938.164551 605.894653,1932.049438 584.589844,1926.039062 C555.308350,1917.778442 526.007446,1909.586426 496.720673,1901.344604 C467.901215,1893.234131 439.089874,1885.094849 410.273163,1876.974731 C391.321808,1871.634521 372.363068,1866.320312 353.415100,1860.968140 C331.499390,1854.777588 309.613220,1848.480347 287.656982,1842.437500 C284.506531,1841.570557 283.983063,1840.011841 283.928406,1837.167603 C283.820679,1831.560913 283.416199,1825.951538 282.922180,1820.362061 C281.677582,1806.281616 280.284119,1792.214478 279.011475,1778.136353 C278.255768,1769.776367 277.685913,1761.399292 276.907990,1753.041382 C275.659607,1739.628662 274.231659,1726.232422 273.026489,1712.816040 C272.200684,1703.623047 271.727417,1694.398682 270.912170,1685.204712 C269.693146,1671.457031 268.266022,1657.727905 267.016541,1643.982788 C266.241180,1635.453613 265.725891,1626.900269 264.923737,1618.373901 C263.693115,1605.292847 262.225464,1592.233765 261.031769,1579.149536 C260.193573,1569.962158 259.736145,1560.740723 258.944061,1551.548584 C257.701965,1537.134521 256.301941,1522.734131 255.009430,1508.324341 C254.582214,1503.561646 254.364120,1498.779663 253.905426,1494.020508 C252.644882,1480.941528 251.222412,1467.877686 250.029465,1454.792725 C249.191559,1445.601929 248.723221,1436.377686 247.913956,1427.183960 C246.689651,1413.275024 245.275681,1399.383057 244.013626,1385.477417 C243.254532,1377.113403 242.687485,1368.732056 241.933487,1360.367554 C240.664413,1346.289307 239.284180,1332.220947 238.011490,1318.142944 C237.255722,1309.782959 236.686478,1301.405640 235.908569,1293.047852 C234.660156,1279.635254 233.231766,1266.238892 232.026535,1252.822632 C231.200699,1243.629639 230.723038,1234.405762 229.913925,1225.211182 C228.689514,1211.297363 227.275467,1197.400391 226.013321,1183.489868 C225.254410,1175.125610 224.718353,1166.740967 223.926346,1158.380249 C222.687241,1145.299927 221.225586,1132.240356 220.031845,1119.156128 C219.193634,1109.968750 218.736694,1100.747192 217.944565,1091.555054 C216.702423,1077.140991 215.302048,1062.740723 214.009445,1048.330933 C213.582230,1043.568237 213.364624,1038.786133 212.905914,1034.026978 C211.645279,1020.947998 210.222473,1007.884155 209.029480,994.799316 C208.191513,985.608521 207.723679,976.384277 206.914398,967.190491 C205.690079,953.281677 204.275742,939.389709 203.013657,925.484070 C202.254532,917.120117 201.688065,908.738708 200.934036,900.374268 C199.664948,886.295959 198.284256,872.227722 197.011505,858.149780 C196.255692,849.789673 195.686996,841.412476 194.909042,833.054626 C193.660583,819.641846 192.231827,806.245728 191.026581,792.829285 C190.200760,783.636475 189.723587,774.412415 188.914444,765.217834 C187.689972,751.304077 186.275543,737.407227 185.013367,723.496643 C184.254440,715.132507 183.718948,706.747803 182.926910,698.387085 C181.687775,685.306763 180.225677,672.247192 179.031891,659.162964 C178.193665,649.975647 177.737259,640.754028 176.945114,631.561951 C175.702942,617.147949 174.302200,602.747620 173.009506,588.337830 C172.582260,583.575195 172.365173,578.793030 171.906418,574.033875 C170.645691,560.954956 169.222534,547.891174 168.029526,534.806335 C167.191574,525.615540 166.724228,516.391296 165.914932,507.197510 C164.690567,493.288666 163.275803,479.396667 162.013702,465.491028 C161.254562,457.127106 160.688660,448.745667 159.934616,440.381256 C158.665451,426.302948 157.284378,412.234772 156.011581,398.156769 C155.255737,389.796692 154.682419,381.419952 153.910858,373.061462 C152.657394,359.482574 151.242416,345.918488 150.023392,332.336639 C149.213150,323.309052 148.716629,314.253357 147.916870,305.224670 C146.684448,291.311584 145.275620,277.414154 144.013382,263.503601 C143.254456,255.139496 142.719559,246.754730 141.927505,238.394058 C140.688324,225.313690 139.225754,212.254166 138.031921,199.169937 C137.193665,189.982666 136.737808,180.760986 135.945633,171.568939 C134.703430,157.154907 133.302353,142.754608 132.009552,128.344833 C131.582260,123.582169 131.365738,118.800026 130.906952,114.040855 C129.646164,100.961884 128.222641,87.898155 127.029594,74.813255 C126.191612,65.622490 125.682198,56.402271 124.925880,47.203438 C123.659340,31.798832 122.312851,16.400799 121.000000,1.000000 C722.030945,1.000000 1323.061890,1.000000 1924.546387,1.460375 C1924.989380,4.750961 1925.200317,7.602378 1924.931763,10.407890 C1923.350586,26.921911 1921.620117,43.421570 1920.015625,59.933437 C1918.950073,70.898094 1917.993774,81.873497 1917.019043,92.846809 C1915.666138,108.077774 1914.351318,123.312111 1913.002930,138.543472 C1911.683350,153.450623 1910.337402,168.355423 1909.011719,183.262009 C1907.671387,198.332520 1906.346436,213.404388 1905.005859,228.474884 C1903.679810,243.381363 1902.349243,258.287476 1901.008545,273.192657 C1899.682861,287.930328 1898.334961,302.666016 1897.009399,317.403687 C1895.668823,332.308411 1894.271851,347.208527 1893.030762,362.121582 C1891.610596,379.185760 1890.335693,396.261993 1888.996460,413.332916 C1888.648438,417.767822 1888.368408,422.209534 1887.930908,426.635651 C1886.654907,439.545532 1885.213989,452.439880 1884.033813,465.358246 C1883.179810,474.707062 1882.736206,484.092834 1881.935791,493.447235 C1880.702026,507.865997 1879.302979,522.270508 1878.005981,536.683960 C1877.283081,544.715210 1876.666504,552.756165 1875.927734,560.785889 C1874.648804,574.688843 1873.263794,588.582214 1872.017700,602.488037 C1871.238403,611.183411 1870.710693,619.901428 1869.930054,628.596680 C1868.681030,642.510010 1867.271729,656.408936 1866.015503,670.321655 C1865.245972,678.845764 1864.712646,687.391296 1863.936035,695.914734 C1862.683716,709.660461 1861.271484,723.391479 1860.017212,737.137085 C1859.239380,745.661011 1858.697021,754.206360 1857.926880,762.731140 C1856.670288,776.641785 1855.265015,790.539062 1854.017944,804.450500 C1853.238403,813.145813 1852.713745,821.863892 1851.932861,830.559021 C1850.683838,844.470276 1849.272705,858.366882 1848.016357,872.277527 C1847.245972,880.807312 1846.714478,889.358765 1845.937378,897.887878 C1844.684937,911.632263 1843.272461,925.362183 1842.016724,939.106262 C1841.237915,947.630371 1840.710938,956.177612 1839.915894,964.700012 C1838.680054,977.947266 1837.234619,991.174988 1836.026978,1004.424622 C1835.204346,1013.449829 1834.722412,1022.505798 1833.934082,1031.534546 C1832.690674,1045.775391 1831.280273,1060.001587 1830.014038,1074.240479 C1829.255493,1082.770752 1828.709351,1091.320190 1827.938477,1099.849243 C1826.681152,1113.761719 1825.281494,1127.661377 1824.013550,1141.572876 C1823.252197,1149.926270 1822.712158,1158.300293 1821.920776,1166.650635 C1820.681396,1179.729248 1819.223877,1192.787476 1818.031250,1205.870117 C1817.193359,1215.060547 1816.738647,1224.285645 1815.940674,1233.480225 C1814.704224,1247.727051 1813.280884,1261.957642 1812.014648,1276.202026 C1811.256226,1284.732544 1810.717773,1293.282715 1809.952393,1301.812500 C1808.689331,1315.888428 1807.293091,1329.952515 1806.010864,1344.026733 C1805.264282,1352.221313 1804.678345,1360.430664 1803.935059,1368.625488 C1802.658325,1382.699341 1801.283325,1396.764282 1800.012085,1410.838501 C1799.256348,1419.205322 1798.687012,1427.589111 1797.914795,1435.954224 C1796.661499,1449.532837 1795.239746,1463.096313 1794.024536,1476.678101 C1793.217041,1485.704224 1792.742188,1494.759888 1791.947144,1503.787354 C1790.707764,1517.860718 1789.293335,1531.918335 1788.011230,1545.988037 C1787.264282,1554.183105 1786.673706,1562.392334 1785.936401,1570.588379 C1784.655396,1584.829834 1783.292114,1599.063965 1782.008423,1613.305298 C1781.269775,1621.501221 1780.678223,1629.710815 1779.916870,1637.904663 C1778.655273,1651.481201 1777.243774,1665.043823 1776.023438,1678.623901 C1775.212524,1687.649292 1774.734741,1696.704590 1773.910278,1705.728394 C1772.699585,1718.977417 1771.235596,1732.203247 1770.026733,1745.452393 C1769.203735,1754.471436 1768.756348,1763.524780 1767.919067,1772.542236 C1766.719238,1785.464233 1765.218628,1798.358398 1764.034302,1811.281616 C1763.192627,1820.466309 1762.755371,1829.688599 1761.870972,1838.868408 C1761.760986,1840.009888 1760.198730,1841.569580 1758.995850,1841.953979 C1752.797241,1843.934448 1746.501343,1845.612305 1740.230347,1847.363647 C1713.089600,1854.943604 1685.933228,1862.467163 1658.806030,1870.095215 C1613.659790,1882.790039 1568.530396,1895.545654 1523.395752,1908.282227 C1491.257935,1917.351074 1459.117188,1926.409790 1426.988770,1935.512085 C1406.622803,1941.281982 1386.300293,1947.206665 1365.916748,1952.913696 C1337.680664,1960.819458 1309.384521,1968.510986 1281.154297,1976.437744 C1260.774292,1982.160278 1240.487671,1988.214722 1220.109497,1993.943481 C1193.147583,2001.523193 1166.135132,2008.923706 1139.147461,2016.412231 C1119.209839,2021.944458 1099.266235,2027.455688 1079.345703,2033.048218 C1063.513428,2037.493042 1047.703003,2042.016357 1031.915283,2046.616211 C1030.806152,2046.939331 1029.965454,2048.183838 1029.000000,2049.000000 M1021.796814,1656.957275 C1022.851868,1656.916016 1023.906982,1656.874878 1024.977783,1657.791870 C1024.977783,1734.530884 1024.977783,1811.269775 1024.977783,1888.509644 C1027.444702,1888.122192 1028.926025,1888.033936 1030.325806,1887.648804 C1073.047241,1875.890625 1115.759155,1864.098145 1158.475464,1852.321655 C1209.702881,1838.198364 1260.928711,1824.068848 1312.163330,1809.971924 C1360.186035,1796.758667 1408.223022,1783.598022 1456.247070,1770.389282 C1508.446899,1756.031860 1560.633423,1741.626465 1612.839722,1727.292358 C1620.818604,1725.101562 1620.864380,1725.228882 1621.845337,1717.137573 C1621.985229,1715.983765 1621.907837,1714.805420 1622.005981,1713.644775 C1623.098022,1700.727905 1624.169189,1687.809082 1625.316406,1674.897095 C1626.845581,1657.684692 1628.461304,1640.480103 1629.993652,1623.267944 C1631.128418,1610.521729 1632.158569,1597.766357 1633.290894,1585.019897 C1634.834351,1567.642090 1636.450195,1550.270630 1637.998047,1532.893188 C1639.118774,1520.312500 1640.156494,1507.724365 1641.272827,1495.143311 C1642.491699,1481.406738 1643.780518,1467.676392 1644.998047,1453.939697 C1646.113159,1441.358643 1647.147339,1428.770142 1648.264526,1416.189209 C1649.822266,1398.645630 1651.435303,1381.107178 1653.003784,1363.564575 C1654.128662,1350.984375 1655.196655,1338.398926 1656.330200,1325.819580 C1657.866333,1308.774414 1659.470947,1291.735229 1660.988770,1274.688477 C1662.138306,1261.776733 1663.159546,1248.853638 1664.306885,1235.941772 C1665.836426,1218.729492 1667.452515,1201.525024 1668.994995,1184.313843 C1670.152222,1171.403442 1671.220459,1158.485107 1672.386230,1145.575439 C1673.551758,1132.667236 1674.845947,1119.770630 1675.979736,1106.859741 C1677.142822,1093.615723 1678.125488,1080.355835 1679.285522,1067.111572 C1680.807861,1049.731812 1682.443359,1032.362061 1683.998291,1014.985168 C1685.138916,1002.239624 1686.203491,989.487427 1687.346313,976.742126 C1688.874756,959.696167 1690.473022,942.656372 1691.990479,925.609436 C1693.139771,912.697754 1694.171509,899.775513 1695.324463,886.864136 C1696.846924,869.817810 1698.469482,852.780518 1699.987793,835.733887 C1701.137939,822.822266 1702.156128,809.898926 1703.297729,796.986572 C1704.834229,779.608093 1706.450928,762.236816 1707.998535,744.859375 C1709.118896,732.278625 1710.161377,719.690918 1711.277588,707.109741 C1712.496460,693.373230 1713.781128,679.642578 1714.998413,665.905945 C1716.113403,653.324707 1717.137695,640.735352 1718.273193,628.156006 C1719.811890,611.111084 1721.460815,594.076111 1722.982422,577.029663 C1724.134888,564.118286 1725.099243,551.190063 1726.260376,538.279480 C1727.778442,521.399536 1729.470337,504.535156 1730.971680,487.653778 C1732.458496,470.935089 1733.734253,454.197571 1735.226685,437.479401 C1736.733643,420.598724 1738.474854,403.738861 1739.962402,386.856567 C1741.464722,369.805664 1742.681763,352.729492 1744.205322,335.680603 C1746.024414,315.324402 1748.116333,294.992554 1749.940063,274.636688 C1751.452637,257.753418 1752.659058,240.842743 1754.160522,223.958389 C1756.265259,200.292252 1758.569336,176.643600 1760.559448,152.968292 C1760.661377,151.755524 1758.848877,149.940735 1757.493530,149.181671 C1756.344482,148.538208 1754.566650,149.002289 1753.067017,149.002274 C1513.074585,149.000000 1273.082031,148.999893 1033.089600,149.001022 C1025.004883,149.001053 1025.001221,149.007446 1025.000610,157.340836 C1024.995605,230.505203 1024.991943,303.669556 1024.201660,376.975159 C1023.140930,377.038452 1022.080139,377.101776 1020.088379,377.028656 C833.776733,377.019226 647.465088,377.009155 461.153412,377.013245 C459.871582,377.013275 458.589783,377.208740 455.876862,377.429291 C476.229065,605.417786 496.553162,833.091858 516.898193,1061.000000 C519.293884,1061.000000 520.940308,1061.000000 522.586731,1061.000000 C687.067810,1061.000000 851.548828,1061.000488 1016.029907,1060.993164 C1017.692993,1060.993164 1019.356018,1060.890137 1021.805420,1060.975586 C1022.865906,1061.039062 1023.926453,1061.102539 1024.992432,1062.082397 C1024.990601,1181.313232 1024.988770,1300.543945 1024.340332,1420.040161 C1023.231506,1420.393433 1022.122681,1420.746704 1020.293701,1420.835083 C984.810608,1411.231445 949.331726,1401.612427 913.843445,1392.027954 C866.952209,1379.363647 820.063660,1366.689087 773.135498,1354.162842 C770.031250,1353.334229 768.822876,1352.117920 768.629822,1348.915039 C768.158997,1341.104614 767.291077,1333.318604 766.594788,1325.521606 C763.394714,1289.688843 760.200500,1253.855591 757.000488,1218.022827 C755.671265,1203.138916 754.332825,1188.255981 752.992126,1173.300049 C678.118408,1173.300049 603.716553,1173.300049 529.014587,1173.300049 C529.351257,1177.415161 529.674316,1181.210327 529.970459,1185.007568 C532.768127,1220.878296 535.538696,1256.751221 538.361450,1292.619995 C541.537048,1332.972046 544.763855,1373.320068 547.958008,1413.670654 C550.876099,1450.533936 553.824951,1487.395020 556.617432,1524.267822 C556.880066,1527.735352 557.862976,1529.273438 561.475098,1530.266113 C683.400513,1563.773926 805.280396,1597.447266 927.175720,1631.064453 C958.444153,1639.687988 989.742065,1648.204346 1021.796814,1656.957275 z"/>
  <path fill="#181818" opacity="1.000000" stroke="none" d="M 1023.545 376.997 C 1023.549 303.782 1022.044 230.566 1022.049 157.351 C 1022.049 149.011 1025.826 143.355 1034.091 143.355 C 1279.435 143.354 1524.026 143.307 1769.37 143.309 C 1770.904 143.309 1774.745 146.008 1775.921 146.652 C 1777.306 147.412 1778.812 151.762 1778.708 152.975 C 1776.673 176.667 1772.639 200.332 1770.489 224.014 C 1768.953 240.911 1767.72 257.833 1766.173 274.729 C 1764.309 295.099 1762.17 315.444 1760.31 335.815 C 1758.754 352.875 1757.509 369.964 1755.973 387.027 C 1754.453 403.921 1752.673 420.793 1751.132 437.685 C 1749.606 454.415 1748.302 471.164 1746.782 487.895 C 1745.247 504.787 1743.517 521.664 1741.965 538.555 C 1740.778 551.475 1739.793 564.412 1738.614 577.333 C 1737.059 594.391 1735.373 611.438 1733.8 628.495 C 1732.64 641.083 1731.592 653.681 1730.452 666.271 C 1729.208 680.018 1727.894 693.757 1726.649 707.504 C 1725.507 720.094 1724.442 732.691 1723.297 745.279 C 1721.715 762.67 1720.061 780.053 1718.491 797.444 C 1717.324 810.365 1716.283 823.297 1715.107 836.218 C 1713.555 853.277 1711.896 870.326 1710.339 887.384 C 1709.162 900.305 1708.107 913.236 1706.931 926.156 C 1705.38 943.215 1703.747 960.267 1702.183 977.325 C 1701.015 990.078 1699.927 1002.84 1698.761 1015.594 C 1697.171 1032.983 1695.5 1050.366 1693.944 1067.758 C 1692.757 1081.011 1691.753 1094.28 1690.564 1107.533 C 1689.405 1120.453 1688.082 1133.358 1686.89 1146.276 C 1685.698 1159.195 1684.606 1172.122 1683.423 1185.042 C 1681.847 1202.265 1680.194 1219.481 1678.631 1236.706 C 1677.458 1249.627 1676.413 1262.559 1675.239 1275.479 C 1673.687 1292.538 1672.046 1309.589 1670.476 1326.646 C 1669.317 1339.234 1668.226 1351.828 1667.076 1364.418 C 1665.472 1381.972 1663.823 1399.523 1662.231 1417.079 C 1661.088 1429.668 1660.031 1442.266 1658.891 1454.856 C 1657.647 1468.602 1656.329 1482.342 1655.083 1496.088 C 1653.941 1508.678 1652.881 1521.275 1651.735 1533.864 C 1650.152 1551.254 1648.5 1568.637 1646.923 1586.028 C 1645.766 1598.783 1644.712 1611.547 1643.552 1624.302 C 1641.985 1641.526 1640.334 1658.743 1638.77 1675.967 C 1637.597 1688.888 1636.503 1701.817 1635.386 1714.743 C 1635.286 1715.903 1635.365 1717.083 1635.222 1718.238 C 1634.219 1726.335 1617.573 1728.614 1626.016 1728.399 C 1633.171 1728.216 1552.999 1754.824 1465.931 1778.744 C 1421.173 1791.04 1374.433 1801.716 1318.633 1815.468 C 1267.991 1827.949 1216.627 1843.825 1162.962 1859.29 C 1120.697 1871.47 1080.582 1883.554 1031.244 1892.489 C 1029.786 1892.753 1023.902 1890.075 1021.38 1890.463 C 1021.38 1813.169 1022.113 1735.643 1022.267 1658.045 C 1024.183 1656.64 1028.846 1655.94 1030.641 1655.456 C 1184.076 1613.999 1337.512 1572.543 1490.985 1531.217 C 1494.442 1530.287 1495.506 1528.845 1495.802 1525.563 C 1497.716 1504.315 1499.911 1483.09 1501.858 1461.844 C 1504.856 1429.142 1507.738 1396.429 1510.652 1363.719 C 1513.522 1331.508 1516.359 1299.293 1519.235 1267.082 C 1522.483 1230.72 1525.777 1194.363 1529.018 1158 C 1531.903 1125.622 1534.729 1093.239 1537.606 1060.861 C 1540.896 1023.834 1544.17 986.805 1547.535 949.784 C 1549.42 929.036 1551.206 908.274 1553.53 887.571 C 1555.536 869.697 1558.238 851.898 1560.712 833.482 C 1558.328 833.482 1556.157 832.276 1553.984 832.276 C 1379.885 832.276 1202.167 832.277 1028.068 832.269 C 1025.857 832.269 1024.246 833.371 1022.038 832.858 C 1022.039 755.428 1022.792 679.195 1023.266 602.154 C 1208.71 602.085 1395.943 601.347 1581.304 601.347 C 1586.451 526.25 1598.248 452.263 1601.4 377.163 C 1598.783 377.163 1596.593 377.163 1594.403 377.163 C 1406.831 377.163 1219.259 377.164 1031.686 377.156 C 1029.476 377.156 1025.756 377.052 1023.545 376.997 Z" style=""/>
  <path fill="#EBEBEB" opacity="0" stroke="none" d=" M1021.019104,1060.835083 C1019.356018,1060.890137 1017.692993,1060.993164 1016.029907,1060.993164 C851.548828,1061.000488 687.067810,1061.000000 522.586731,1061.000000 C520.940308,1061.000000 519.293884,1061.000000 516.898193,1061.000000 C496.553162,833.091858 476.229065,605.417786 455.876862,377.429291 C458.589783,377.208740 459.871582,377.013275 461.153412,377.013245 C647.465088,377.009155 833.776733,377.019226 1020.549744,377.554993 C1021.013672,452.332489 1021.016235,526.583679 1020.553345,600.903015 C915.169861,600.971191 810.251770,600.971191 704.992493,600.971191 C711.696106,678.666870 718.344238,755.718994 725.012146,833.000000 C727.651306,833.000000 729.632019,833.000000 731.612793,833.000000 C825.918762,833.000000 920.224792,832.998962 1014.530762,833.006958 C1016.693359,833.007141 1018.856018,833.110046 1021.014404,833.623352 C1021.013184,909.666138 1021.016113,985.250610 1021.019104,1060.835083 z"/>
  <path fill="#FFFFFF" opacity="0" stroke="none" d=" M1021.412231,1060.905273 C1021.016113,985.250610 1021.013184,909.666138 1021.407715,833.553101 C1022.866028,832.960999 1023.926941,832.897461 1024.987793,832.833862 C1027.150513,832.889221 1029.313232,832.992920 1031.475952,832.993042 C1201.777466,833.000549 1372.078979,832.999878 1542.380493,832.999878 C1544.505005,832.999878 1546.629395,832.999878 1548.960571,832.999878 C1546.541382,851.403259 1543.897705,869.189636 1541.935303,887.050903 C1539.662354,907.739563 1537.914551,928.487488 1536.070557,949.221375 C1532.780151,986.216248 1529.577148,1023.218994 1526.359131,1060.220337 C1523.545044,1092.576172 1520.780151,1124.936279 1517.957886,1157.291382 C1514.788086,1193.628540 1511.565918,1229.960815 1508.389038,1266.297363 C1505.574829,1298.485962 1502.800171,1330.678223 1499.992676,1362.867432 C1497.141724,1395.554077 1494.323486,1428.243530 1491.391235,1460.922852 C1489.486450,1482.154175 1487.339355,1503.363647 1485.466553,1524.597534 C1485.177368,1527.876953 1484.136353,1529.318359 1480.755127,1530.248413 C1330.630371,1571.545288 1180.541382,1612.971802 1030.452637,1654.399902 C1028.698242,1654.884033 1027.003174,1655.583374 1025.121216,1656.508057 C1023.906982,1656.874878 1022.851868,1656.916016 1021.411194,1656.409668 C1021.021667,1577.608032 1021.017761,1499.354004 1021.013855,1421.099976 C1022.122681,1420.746704 1023.231506,1420.393433 1025.042236,1419.899414 C1031.681519,1418.151855 1037.618286,1416.541870 1043.556763,1414.938721 C1118.518433,1394.701782 1193.471802,1374.434448 1268.468750,1354.328979 C1272.000854,1353.382080 1273.175293,1351.894287 1273.477295,1348.395874 C1274.980713,1330.980713 1276.740479,1313.587402 1278.414673,1296.186890 C1281.603638,1263.043213 1284.796875,1229.900024 1287.986328,1196.756348 C1290.856689,1166.927002 1293.731934,1137.098145 1296.589966,1107.267700 C1298.048706,1092.042236 1299.474365,1076.813599 1300.970459,1061.000000 C1298.752197,1061.000000 1296.794189,1061.000000 1294.836060,1061.000000 C1206.715210,1061.000000 1118.594360,1060.999023 1030.473511,1061.006836 C1028.644653,1061.006958 1026.815796,1061.110596 1024.986938,1061.166016 C1023.926453,1061.102539 1022.865906,1061.039062 1021.412231,1060.905273 z"/>
  <path fill="#EBEBEB" opacity="0" stroke="none" d=" M1020.653809,1420.967529 C1021.017761,1499.354004 1021.021667,1577.608032 1021.026001,1656.315918 C989.742065,1648.204346 958.444153,1639.687988 927.175720,1631.064453 C805.280396,1597.447266 683.400513,1563.773926 561.475098,1530.266113 C557.862976,1529.273438 556.880066,1527.735352 556.617432,1524.267822 C553.824951,1487.395020 550.876099,1450.533936 547.958008,1413.670654 C544.763855,1373.320068 541.537048,1332.972046 538.361450,1292.619995 C535.538696,1256.751221 532.768127,1220.878296 529.970459,1185.007568 C529.674316,1181.210327 529.351257,1177.415161 529.014587,1173.300049 C603.716553,1173.300049 678.118408,1173.300049 752.992126,1173.300049 C754.332825,1188.255981 755.671265,1203.138916 757.000488,1218.022827 C760.200500,1253.855591 763.394714,1289.688843 766.594788,1325.521606 C767.291077,1333.318604 768.158997,1341.104614 768.629822,1348.915039 C768.822876,1352.117920 770.031250,1353.334229 773.135498,1354.162842 C820.063660,1366.689087 866.952209,1379.363647 913.843445,1392.027954 C949.331726,1401.612427 984.810608,1411.231445 1020.653809,1420.967529 z"/>
  <path fill="#FFFFFF" opacity="0" stroke="none" d=" M1021.018799,600.834839 C1021.016235,526.583679 1021.013672,452.332489 1021.015259,377.623199 C1022.080139,377.101776 1023.140930,377.038452 1024.594727,376.904541 C1027.150635,376.889282 1029.313599,376.993011 1031.476440,376.993103 C1214.956543,377.000580 1398.436768,377.000000 1581.916870,377.000000 C1584.058960,377.000000 1586.200928,377.000000 1588.760986,377.000000 C1585.677979,452.047302 1574.137939,525.982788 1569.104248,601.027039 C1387.785645,601.027039 1206.851685,601.027039 1025.059692,601.025879 C1023.140686,600.961487 1022.079773,600.898193 1021.018799,600.834839 z"/>
  <path fill="#181818" opacity="1.000000" stroke="none" d="M 1020.92 1061.624 C 1022.768 1061.111 1025.366 1061.007 1027.217 1061.007 C 1116.398 1060.999 1205.58 1061 1294.762 1061 C 1296.744 1061 1298.725 1061 1300.97 1061 C 1299.456 1076.814 1298.014 1092.042 1296.537 1107.268 C 1293.645 1137.098 1290.735 1166.927 1287.83 1196.756 C 1284.602 1229.9 1281.371 1263.043 1278.143 1296.187 C 1276.448 1313.587 1274.668 1330.981 1273.146 1348.396 C 1272.84 1351.894 1271.652 1353.382 1268.078 1354.329 C 1192.178 1374.434 1116.321 1394.702 1040.457 1414.939 C 1034.447 1416.542 1023.958 1418.89 1017.565 1420.505 C 1017.185 1301.282 1020.921 1181.313 1020.92 1061.624 Z" style=""/>
  <path fill="#272727" opacity="1.000000" stroke="none" d=" M1020.553345,600.903076 C1022.079773,600.898193 1023.140686,600.961487 1024.594727,601.095337 C1024.989502,678.083191 1024.991211,755.000488 1024.990356,832.375793 C1023.926941,832.897461 1022.866028,832.960999 1021.411865,833.094788 C1018.856018,833.110046 1016.693359,833.007141 1014.530762,833.006958 C920.224792,832.998962 825.918762,833.000000 731.612793,833.000000 C729.632019,833.000000 727.651306,833.000000 725.012146,833.000000 C718.344238,755.718994 711.696106,678.666870 704.992493,600.971191 C810.251770,600.971191 915.169861,600.971191 1020.553345,600.903076 z"/>
</svg>