<svg version="1.1" id="Layer_1" xmlns="http://www.w3.org/2000/svg" xmlns:xlink="http://www.w3.org/1999/xlink" x="0px" y="0px"
	 width="200" height="200"  viewBox="0 0 625 625" enable-background="new 0 0 625 625" xml:space="preserve">
<path fill="#272727" opacity="1.000000" stroke="none" 
	d="
M582.000000,626.000000 
	C388.000031,626.000000 194.500076,626.000000 1.000078,626.000000 
	C1.000052,417.666748 1.000052,209.333481 1.000026,1.000162 
	C209.333237,1.000108 417.666473,1.000108 625.999756,1.000054 
	C625.999878,209.333191 625.999878,417.666382 625.999939,625.999756 
	C611.500000,626.000000 597.000000,626.000000 582.000000,626.000000 
M557.572205,547.062378 
	C582.057129,520.937866 580.027283,478.765076 567.515076,454.727966 
	C558.634949,437.668549 544.273621,425.942657 527.701233,417.276520 
	C510.921295,408.501831 493.279297,401.391174 476.256561,393.057953 
	C469.001312,389.506256 461.497711,385.646362 455.609528,380.278351 
	C440.885651,366.855164 447.000397,342.526520 466.134796,337.161041 
	C480.210358,333.214172 492.966064,336.370880 503.433838,346.712402 
	C507.406891,350.637543 510.500214,355.453217 514.371277,360.338440 
	C529.025085,350.935913 544.073486,341.280273 559.091370,331.644165 
	C552.236755,318.885651 540.913696,305.631439 529.864014,298.752411 
	C503.726044,282.480133 475.276672,280.788727 446.588043,288.878235 
	C416.223572,297.440338 396.152496,317.607544 391.317078,349.448395 
	C386.252716,382.796967 396.370605,410.933716 424.855499,431.063446 
	C439.248199,441.234497 455.387329,447.909943 471.312683,455.111115 
	C482.803162,460.306854 494.235504,465.787292 505.113953,472.134460 
	C515.039795,477.925812 519.188171,487.441010 517.685120,498.980530 
	C516.183533,510.508759 509.009552,517.482971 498.460907,521.033447 
	C473.749847,529.350769 446.870209,524.141907 428.907562,501.210236 
	C425.958008,497.444733 423.157593,493.562439 420.058838,489.428009 
	C404.201569,498.577820 388.574707,507.594666 372.472717,516.885681 
	C383.317261,535.623474 396.456909,551.189331 415.314880,561.218811 
	C440.374054,574.546326 467.233032,578.761047 495.179657,575.668152 
	C518.734131,573.061340 540.205627,565.213745 557.572205,547.062378 
M283.121460,288.443604 
	C282.816559,290.346161 282.246643,292.248535 282.245178,294.151337 
	C282.199341,353.298218 282.262421,412.445251 282.157410,471.591980 
	C282.139984,481.404877 281.812714,491.251251 280.936188,501.020020 
	C279.832825,513.317078 271.352936,522.061096 259.377838,523.883789 
	C243.893478,526.240479 231.037018,521.834534 221.918152,508.562134 
	C218.829880,504.067169 215.949997,499.429047 212.718399,494.462128 
	C196.839035,504.190948 181.185532,513.781372 165.325943,523.498108 
	C173.888031,540.680481 185.127457,554.696472 201.485565,563.868164 
	C225.884811,577.548340 252.103668,579.653259 278.975342,573.978210 
	C304.132904,568.665161 322.824677,554.660828 333.162048,530.531006 
	C339.803497,515.028137 341.026215,498.646851 341.019470,482.085236 
	C340.993988,419.272949 340.918732,356.460663 340.848022,293.648376 
	C340.846069,291.900574 340.685547,290.152924 340.590179,288.227783 
	C321.311340,288.227783 302.660889,288.227783 283.121460,288.443604 
z"/>
<path fill="#333430" opacity="0" stroke="none" 
	d="
M557.328979,547.321167 
	C540.205627,565.213745 518.734131,573.061340 495.179657,575.668152 
	C467.233032,578.761047 440.374054,574.546326 415.314880,561.218811 
	C396.456909,551.189331 383.317261,535.623474 372.472717,516.885681 
	C388.574707,507.594666 404.201569,498.577820 420.058838,489.428009 
	C423.157593,493.562439 425.958008,497.444733 428.907562,501.210236 
	C446.870209,524.141907 473.749847,529.350769 498.460907,521.033447 
	C509.009552,517.482971 516.183533,510.508759 517.685120,498.980530 
	C519.188171,487.441010 515.039795,477.925812 505.113953,472.134460 
	C494.235504,465.787292 482.803162,460.306854 471.312683,455.111115 
	C455.387329,447.909943 439.248199,441.234497 424.855499,431.063446 
	C396.370605,410.933716 386.252716,382.796967 391.317078,349.448395 
	C396.152496,317.607544 416.223572,297.440338 446.588043,288.878235 
	C475.276672,280.788727 503.726044,282.480133 529.864014,298.752411 
	C540.913696,305.631439 552.236755,318.885651 559.091370,331.644165 
	C544.073486,341.280273 529.025085,350.935913 514.371277,360.338440 
	C510.500214,355.453217 507.406891,350.637543 503.433838,346.712402 
	C492.966064,336.370880 480.210358,333.214172 466.134796,337.161041 
	C447.000397,342.526520 440.885651,366.855164 455.609528,380.278351 
	C461.497711,385.646362 469.001312,389.506256 476.256561,393.057953 
	C493.279297,401.391174 510.921295,408.501831 527.701233,417.276520 
	C544.273621,425.942657 558.634949,437.668549 567.515076,454.727966 
	C580.027283,478.765076 582.057129,520.937866 557.328979,547.321167 
z"/>
<path fill="#333430" opacity="0" stroke="none" 
	d="
M283.565948,288.335693 
	C302.660889,288.227783 321.311340,288.227783 340.590179,288.227783 
	C340.685547,290.152924 340.846069,291.900574 340.848022,293.648376 
	C340.918732,356.460663 340.993988,419.272949 341.019470,482.085236 
	C341.026215,498.646851 339.803497,515.028137 333.162048,530.531006 
	C322.824677,554.660828 304.132904,568.665161 278.975342,573.978210 
	C252.103668,579.653259 225.884811,577.548340 201.485565,563.868164 
	C185.127457,554.696472 173.888031,540.680481 165.325943,523.498108 
	C181.185532,513.781372 196.839035,504.190948 212.718399,494.462128 
	C215.949997,499.429047 218.829880,504.067169 221.918152,508.562134 
	C231.037018,521.834534 243.893478,526.240479 259.377838,523.883789 
	C271.352936,522.061096 279.832825,513.317078 280.936188,501.020020 
	C281.812714,491.251251 282.139984,481.404877 282.157410,471.591980 
	C282.262421,412.445251 282.199341,353.298218 282.245178,294.151337 
	C282.246643,292.248535 282.816559,290.346161 283.565948,288.335693 
z"/>
</svg>